# xmcd
#
# Track frame offsets:
# 150
# 26250
# 53888
# 86925
# 108525
# 135900
# 157425
# 174225
# 197738
# 235538
# 258300
#
# Disc length: 3774 seconds
#
#
# Revision: 0
# Processed by: cddbd v1.5.2PL0 Copyright (c) Steve Scherf et al.
# Submitted via: Nero 7, 11, 10, 0 
#
DISCID=8c0ebc0b
DTITLE=Mike Turk - Harmonica Salad
DYEAR=1992
DGENRE=Blues
TTITLE0=Comeback Kid
TTITLE1=Tin Sandwich Swing
TTITLE2=Somewhere In The Night
TTITLE3=Lament
TTITLE4=Half Nelson
TTITLE5=Mooch
TTITLE6=Habanero Hero
TTITLE7=Chro-Magnum Man
TTITLE8=Tin Sandwich Swing (Take 2)
TTITLE9=Sizzling At The Blue Room
TTITLE10=Heart's On Fire
EXTD=
EXTT0=Comeback Kid
EXTT1=Tin Sandwich Swing
EXTT2=Somewhere In The Night
EXTT3=Lament
EXTT4=Half Nelson
EXTT5=Mooch
EXTT6=Habanero Hero
EXTT7=Chro-Magnum Man
EXTT8=Tin Sandwich Swing (Take 2)
EXTT9=Sizzling At The Blue Room
EXTT10=Heart's On Fire
PLAYORDER=
